<svg height="400" viewBox="0 0 400 400" width="400" xmlns="http://www.w3.org/2000/svg"><path d="m191.5 15.918c-130.797 5.746-213.526 141.126-158.64 259.602 41.525 89.635 148.742 130.054 239.015 90.104 82.66-36.581 126.232-127.468 102.895-214.629-21.934-81.919-99.077-138.776-183.27-135.077m18.875 16.348c98.639 7.13 169.87 99.091 151.904 196.109-16.281 87.916-98.722 147.372-187.154 134.976-88.119-12.352-151.321-92.795-142.482-181.351 8.952-89.692 87.927-156.226 177.732-149.734m-19.375 31.517c-30.083 3.06-55.937 26.062-62.346 55.467-1.521 6.977-1.492 6.472-1.589 27.813l-.09 19.687h23.877 23.876l.078-18.062.078-18.063.684-2.197c7.254-23.269 39.504-22.693 45.887.819l.645 2.378.092 17.563.091 17.562h23.88 23.88l-.115-18.812c-.124-20.281-.17-21.09-1.579-27.762-7.534-35.684-41.01-60.09-77.349-56.393m13.197 15.976c20.039 2.138 37.272 14.87 45.236 33.422 3.592 8.367 4.547 14.654 4.56 30.007l.007 7.562h-7.875-7.875v-8.187c-.001-16.192-1.748-23.068-7.959-31.315-20.652-27.421-63.346-17.979-70.841 15.667-.507 2.276-.555 3.261-.641 13.148l-.093 10.687h-7.858-7.858v-9.635c0-5.299.119-10.727.264-12.062 3.301-30.404 30.646-52.525 60.933-49.294m-81.288 95.023c-13.77 1.783-24.894 12.515-27.276 26.313-.579 3.354-.576 86.327.003 89.898 2.068 12.754 12.137 23.149 25.114 25.927 2.028.434 5.568.455 77.875.455h75.75l2.693-.684c12.578-3.195 21.541-12.609 24.103-25.316.68-3.372.705-86.928.027-90.5-2.481-13.071-11.772-22.579-25.198-25.787-2.089-.499-149.327-.794-153.091-.306m151.08 16.275c6.501 2.024 10.757 7.098 11.52 13.735.508 4.426.206 83-.327 84.833-1.287 4.427-4.284 8.144-8.111 10.06-3.984 1.994 3.104 1.837-79.446 1.759l-73.75-.069-1.625-.556c-4.034-1.38-7.499-4.337-9.237-7.881-1.909-3.896-1.778-.24-1.704-47.458l.066-42.355.554-1.629c1.873-5.502 6.828-9.786 12.402-10.723 2.768-.465 148.137-.189 149.658.284m-140.864 15.411c-2.508.656-4.742 2.605-5.593 4.878l-.539 1.442.066 33.668.066 33.669.742 1.339c3.253 5.873 11.471 5.607 14.355-.464l.653-1.375.067-33c.067-32.458.06-33.027-.436-34.659-1.182-3.895-5.603-6.486-9.381-5.498m63-.044c-13.757 1.825-18.461 20.386-7.23 28.531l1.605 1.164v20.816 20.815h8 8v-20.96-20.96l.573-.261c2.044-.931 5.267-5.027 6.355-8.075 3.949-11.066-5.546-22.629-17.303-21.07" fill-rule="evenodd"/></svg>